<svg width="21" height="14" viewBox="0 0 21 14" fill="none" xmlns="http://www.w3.org/2000/svg">
<g clip-path="url(#clip0_1_233)">
<path d="M6.58178 0.4375C7.17053 0.4375 7.7003 0.488479 8.18609 0.592434C8.66889 0.69539 9.08071 0.865318 9.42856 1.10022C9.77142 1.33512 10.0393 1.64698 10.2322 2.03882C10.4191 2.42565 10.5121 2.90945 10.5121 3.4812C10.5121 4.10094 10.3722 4.61872 10.0913 5.03154C9.8084 5.44537 9.39158 5.78422 8.83582 6.04611C9.59249 6.26502 10.1533 6.64785 10.5251 7.19162C10.8989 7.74039 11.0819 8.39711 11.0819 9.16678C11.0819 9.79151 10.963 10.3283 10.724 10.7791C10.4938 11.2232 10.1598 11.6052 9.75043 11.8926C9.32638 12.1879 8.85272 12.4046 8.35202 12.5323C7.82706 12.6701 7.28646 12.7394 6.74371 12.7383H0.78125V0.4375H6.58178ZM6.23093 5.40738C6.71072 5.40738 7.10855 5.29343 7.42242 5.06253C7.73429 4.83463 7.88522 4.45879 7.88522 3.94401C7.88522 3.65813 7.83424 3.42223 7.73429 3.23731C7.6369 3.0594 7.49277 2.91147 7.31746 2.80949C7.13397 2.70066 6.93146 2.62773 6.72072 2.59458C6.49101 2.55174 6.25768 2.53132 6.02402 2.53361H3.4901V5.40738H6.23093ZM6.38186 10.6442C6.64875 10.6442 6.90264 10.6212 7.14154 10.5672C7.38244 10.5152 7.59635 10.4312 7.77827 10.3063C7.96019 10.1863 8.11013 10.0234 8.21808 9.8155C8.32703 9.60959 8.38001 9.34071 8.38001 9.01784C8.38001 8.38411 8.20109 7.93331 7.84724 7.66042C7.49239 7.39054 7.01659 7.25659 6.43384 7.25659H3.4901V10.6451H6.38186V10.6442ZM14.9432 10.6032C15.3101 10.961 15.8389 11.1409 16.5266 11.1409C17.0194 11.1409 17.4451 11.016 17.8039 10.7681C18.1579 10.5192 18.3738 10.2533 18.4568 9.97843H20.6108C20.2649 11.05 19.7402 11.8157 19.0224 12.2765C18.3137 12.7393 17.4512 12.9692 16.4436 12.9692C15.7418 12.9692 15.1101 12.8562 14.5443 12.6323C14.0013 12.4208 13.5107 12.0941 13.106 11.6747C12.7081 11.2455 12.4004 10.7407 12.2014 10.1903C11.9826 9.58171 11.8742 8.93888 11.8815 8.29215C11.8815 7.62644 11.9924 7.0037 12.2104 6.42895C12.4172 5.87337 12.7349 5.36563 13.144 4.93658C13.5489 4.51676 14.0287 4.1859 14.5873 3.94301C15.1749 3.69589 15.8072 3.5727 16.4445 3.58116C17.1982 3.58116 17.857 3.7271 18.4228 4.02097C18.9713 4.3015 19.447 4.70603 19.8121 5.20247C20.1749 5.69526 20.4339 6.26002 20.5949 6.89275C20.7558 7.52448 20.8118 8.1842 20.7658 8.8749H14.3375C14.3385 9.5786 14.5753 10.2453 14.9432 10.6032ZM17.754 5.92416C17.4632 5.6023 16.9713 5.42837 16.3696 5.42837C15.9788 5.42837 15.656 5.49335 15.3961 5.62729C15.1583 5.74731 14.9475 5.91427 14.7762 6.11808C14.6258 6.30312 14.5143 6.51663 14.4485 6.74581C14.3907 6.93691 14.3535 7.1336 14.3375 7.33256H18.3178C18.2599 6.70883 18.0458 6.24802 17.754 5.92416ZM13.8377 1.26315H18.8246V2.47763H13.8377V1.26315Z" fill="url(#paint0_linear_1_233)"/>
</g>
<defs>
<linearGradient id="paint0_linear_1_233" x1="-2.71875" y1="13.4375" x2="15.3256" y2="-1.34002" gradientUnits="userSpaceOnUse">
<stop stop-color="#D95DB0"/>
<stop offset="1" stop-color="#3344DC"/>
</linearGradient>
<clipPath id="clip0_1_233">
<rect width="20" height="13" fill="white" transform="translate(0.78125 0.4375)"/>
</clipPath>
</defs>
</svg>
