<svg width="21" height="21" viewBox="0 0 21 21" fill="none" xmlns="http://www.w3.org/2000/svg">
<g clip-path="url(#clip0_1_235)">
<path d="M19.4412 5.4175C18.5686 3.90523 17.3127 2.64971 15.8003 1.7775C14.2673 0.8845 12.5942 0.4375 10.7812 0.4375C8.96825 0.4375 7.29525 0.8845 5.76125 1.7775C4.22825 2.6705 3.01425 3.8845 2.12125 5.4175C1.22825 6.9505 0.78125 8.6245 0.78125 10.4375C0.78125 12.2505 1.22725 13.9245 2.12125 15.4575C2.99357 16.97 4.2495 18.2256 5.76225 19.0975C7.29525 19.9905 8.96825 20.4375 10.7812 20.4375C12.5942 20.4375 14.2673 19.9905 15.8013 19.0975C17.3138 18.2253 18.5696 16.9698 19.4422 15.4575C20.3352 13.9245 20.7812 12.2505 20.7812 10.4375C20.7812 8.6245 20.3352 6.9505 19.4412 5.4175ZM10.7812 2.0975C12.7812 2.0975 14.5532 2.7375 16.1012 4.0165C15.1812 5.1905 13.8153 6.1565 12.0013 6.9165C10.9993 5.1035 9.91325 3.5895 8.74025 2.3765C9.40505 2.19268 10.0915 2.09885 10.7812 2.0975ZM4.29125 5.2375C5.02249 4.30893 5.94771 3.55127 7.00225 3.0175C8.21425 4.2185 9.32725 5.7175 10.3422 7.5175C8.34225 8.1175 6.22825 8.4175 4.00125 8.4175C3.42825 8.4175 2.99525 8.4045 2.70125 8.3775C3.00773 7.23188 3.5492 6.16256 4.29125 5.2375ZM2.44125 10.4375C2.44125 10.3835 2.44425 10.3175 2.45125 10.2375C2.45825 10.1575 2.46125 10.0915 2.46125 10.0375C2.71525 10.0515 3.10225 10.0575 3.62225 10.0575C6.28825 10.0575 8.76825 9.6905 11.0612 8.9575C11.2483 9.3305 11.4422 9.7505 11.6412 10.2175C10.3212 10.5105 8.96725 11.2235 7.58025 12.3575C6.19325 13.4915 5.18125 14.6845 4.54125 15.9375C3.14125 14.3505 2.44125 12.5175 2.44125 10.4375ZM10.7812 18.7775C8.88725 18.7775 7.18725 18.1905 5.68025 17.0185C6.28125 15.8315 7.20425 14.6965 8.45125 13.6175C9.69725 12.5375 10.9342 11.8645 12.1613 11.5975C12.9353 13.7365 13.4587 15.958 13.7212 18.2175C12.7841 18.5837 11.7873 18.7735 10.7812 18.7775ZM17.8612 14.8175C17.2067 15.872 16.3253 16.7674 15.2812 17.4385C15.0413 15.3585 14.5813 13.3315 13.9023 11.3575C14.8343 11.2915 15.6673 11.2575 16.4023 11.2575C17.2013 11.2575 18.0883 11.2915 19.0613 11.3575C18.9307 12.5873 18.5203 13.7709 17.8612 14.8175ZM16.6213 9.8175C15.4613 9.8175 14.3883 9.8645 13.4012 9.9575C13.1922 9.41028 12.9653 8.86999 12.7212 8.3375C14.7872 7.4315 16.2533 6.3315 17.1203 5.0375C18.3203 6.4515 18.9742 8.0645 19.0802 9.8775C18.2682 9.8375 17.4482 9.8175 16.6213 9.8175Z" fill="url(#paint0_linear_1_235)"/>
</g>
<defs>
<linearGradient id="paint0_linear_1_235" x1="0.78125" y1="20.4851" x2="25.2044" y2="9.41267" gradientUnits="userSpaceOnUse">
<stop stop-color="#D95DB0"/>
<stop offset="1" stop-color="#3344DC"/>
</linearGradient>
<clipPath id="clip0_1_235">
<rect width="20" height="20" fill="white" transform="translate(0.78125 0.4375)"/>
</clipPath>
</defs>
</svg>
