<svg width="33" height="49" viewBox="0 0 33 49" fill="none" xmlns="http://www.w3.org/2000/svg">
<g clip-path="url(#clip0_1_156)">
<path d="M8.32969 48.5938C12.7448 48.5938 16.3281 45.0098 16.3281 40.5938V32.5938H8.32969C3.91458 32.5938 0.331299 36.1778 0.331299 40.5938C0.331299 45.0098 3.91458 48.5938 8.32969 48.5938Z" fill="#0ACF83"/>
<path d="M0.331299 24.5938C0.331299 20.1778 3.91458 16.5938 8.32969 16.5938H16.3281V32.5938H8.32969C3.91458 32.5938 0.331299 29.0098 0.331299 24.5938Z" fill="#A259FF"/>
<path d="M0.331421 8.59375C0.331421 4.17775 3.91471 0.59375 8.32983 0.59375H16.3282V16.5938H8.32983C3.91471 16.5938 0.331421 13.0098 0.331421 8.59375Z" fill="#F24E1E"/>
<path d="M16.3281 0.59375H24.3265C28.7416 0.59375 32.3249 4.17775 32.3249 8.59375C32.3249 13.0098 28.7416 16.5938 24.3265 16.5938H16.3281V0.59375Z" fill="#FF7262"/>
<path d="M32.3249 24.5938C32.3249 29.0098 28.7416 32.5938 24.3265 32.5938C19.9114 32.5938 16.3281 29.0098 16.3281 24.5938C16.3281 20.1778 19.9114 16.5938 24.3265 16.5938C28.7416 16.5938 32.3249 20.1778 32.3249 24.5938Z" fill="#1ABCFE"/>
</g>
<defs>
<clipPath id="clip0_1_156">
<rect width="32" height="48" fill="white" transform="translate(0.328125 0.59375)"/>
</clipPath>
</defs>
</svg>
