<svg width="19" height="18" viewBox="0 0 19 18" fill="none" xmlns="http://www.w3.org/2000/svg">
<g clip-path="url(#clip0_1_238)">
<path d="M2.82792 5.03085C3.95827 5.03085 4.8746 4.11452 4.8746 2.98417C4.8746 1.85383 3.95827 0.9375 2.82792 0.9375C1.69758 0.9375 0.78125 1.85383 0.78125 2.98417C0.78125 4.11452 1.69758 5.03085 2.82792 5.03085Z" fill="url(#paint0_linear_1_238)"/>
<path d="M6.8068 6.58189V17.9368H10.3323V12.3215C10.3323 10.8399 10.6111 9.40495 12.4482 9.40495C14.2601 9.40495 14.2825 11.0989 14.2825 12.4151V17.9377H17.81V11.7107C17.81 8.65195 17.1515 6.30127 13.5764 6.30127C11.8598 6.30127 10.7093 7.24322 10.2388 8.13467H10.1911V6.58189H6.8068ZM1.06152 6.58189H4.59269V17.9368H1.06152V6.58189Z" fill="url(#paint1_linear_1_238)"/>
</g>
<defs>
<linearGradient id="paint0_linear_1_238" x1="0.78125" y1="5.04059" x2="5.77987" y2="2.77442" gradientUnits="userSpaceOnUse">
<stop stop-color="#D95DB0"/>
<stop offset="1" stop-color="#3344DC"/>
</linearGradient>
<linearGradient id="paint1_linear_1_238" x1="1.06152" y1="17.9654" x2="18.3546" y2="6.68132" gradientUnits="userSpaceOnUse">
<stop stop-color="#D95DB0"/>
<stop offset="1" stop-color="#3344DC"/>
</linearGradient>
<clipPath id="clip0_1_238">
<rect width="18" height="17" fill="white" transform="translate(0.78125 0.9375)"/>
</clipPath>
</defs>
</svg>
