<svg width="79" height="52" viewBox="0 0 79 52" fill="none" xmlns="http://www.w3.org/2000/svg">
<g clip-path="url(#clip0_1_252)">
<path fill-rule="evenodd" clip-rule="evenodd" d="M52.8369 9.89729C51.3845 9.01322 49.7111 8.57119 48.0692 8.57119C42.9858 8.57119 39.1023 12.7074 39.1023 17.475C39.1023 22.2427 42.9858 26.3789 48.0692 26.3789C49.6795 26.3789 51.3845 25.9369 52.8369 25.0528V25.9684H57.4467V0.109375H52.8369V9.89729ZM48.385 22.0217C45.7644 21.9901 43.9331 20.0325 43.9331 17.475C43.9331 14.9491 45.7644 12.96 48.385 12.9284C51.0056 12.96 52.8369 14.9491 52.8369 17.475C52.8369 20.0325 51.0056 21.9901 48.385 22.0217ZM5.41286 24.8949V34.4618H0.80307V8.60276H5.41286V18.5486C6.20221 17.8224 7.62304 17.033 9.64377 17.033C13.5274 17.033 16.369 19.9062 16.369 23.632V34.3987H11.7592V24.6107C11.7592 22.7795 10.6857 21.2955 8.63341 21.2955C6.77054 21.2955 5.41286 22.7479 5.41286 24.8949ZM36.0396 31.0518C34.4293 33.3252 31.6824 34.8407 28.3987 34.8407C22.9048 34.8407 19.116 30.7361 19.116 25.9369C19.116 21.1692 22.8101 17.033 28.3355 17.033C33.861 17.033 37.7446 21.3271 37.2394 27.263H24.0099C24.5151 29.3153 26.2517 30.5466 28.3987 30.5782C30.1037 30.5466 31.6192 29.7573 32.377 28.4312L36.0396 31.0518ZM28.3355 21.2008C26.1569 21.2323 24.6414 22.4953 24.1362 24.2003H32.5664C32.0613 22.59 30.5141 21.2323 28.3355 21.2008ZM78.6644 8.98165L65.3402 34.5565H59.9095L66.1611 23.1268L59.1201 8.98165H64.2351L68.8133 18.4854L73.5494 8.98165H78.6644ZM4.46565 48.1965C4.30778 48.5754 3.6763 49.0805 2.79223 49.0805C1.59242 49.0805 0.80307 48.3543 0.80307 47.4387C0.80307 46.5231 1.52927 45.9547 2.50806 45.9547H3.73945C4.11833 45.9547 4.33935 45.7337 4.33935 45.418C4.33935 45.0075 3.89732 44.5023 3.04482 44.5023C2.28704 44.5023 1.81344 44.9128 1.59242 45.4811L0.96094 45.0707C1.27668 44.3129 1.93973 43.7445 3.01325 43.7445C4.33935 43.7445 5.16027 44.597 5.16027 45.639V48.9858H4.43407V48.1965H4.46565ZM1.65557 47.4387C1.65557 47.9123 2.06603 48.3228 2.79223 48.3228C3.80259 48.3228 4.4025 47.6597 4.4025 46.7441V46.6809H2.53964C2.00288 46.6494 1.65557 46.9651 1.65557 47.4387ZM9.20174 43.713C9.92794 43.713 10.591 44.0287 11.0646 44.5339V43.8393H11.8539V48.9858C11.8539 50.5329 10.812 51.7012 9.23331 51.7012C8.22294 51.7012 7.3073 51.196 6.83369 50.4067L7.55989 49.9646C7.87563 50.5329 8.53868 50.9118 9.23331 50.9118C10.4015 50.9118 11.0646 50.0909 11.0646 49.0174V48.2912C10.591 48.7964 9.92794 49.1121 9.20174 49.1121C7.71776 49.1121 6.48638 48.007 6.48638 46.4283C6.48638 44.8496 7.71776 43.713 9.20174 43.713ZM7.33887 46.3968C7.33887 47.5019 8.1598 48.2596 9.20174 48.2596C10.2437 48.2596 11.0646 47.4703 11.0646 46.3968C11.0646 45.2917 10.2437 44.5023 9.20174 44.5023C8.1598 44.5023 7.33887 45.2917 7.33887 46.3968ZM15.8638 49.0805C16.8426 49.0805 17.7267 48.5754 18.2003 47.786L17.5373 47.3756C17.1899 47.9439 16.5585 48.2912 15.8638 48.2912C15.0429 48.2912 14.1588 47.7229 14.001 46.6809H18.3898C18.5792 45.0391 17.3794 43.7445 15.8007 43.7445C14.222 43.7445 13.1485 44.9759 13.1485 46.4283C13.1485 47.8492 14.3167 49.0805 15.8638 49.0805ZM14.0325 45.9232C14.222 45.1022 14.8535 44.5023 15.8007 44.5023C16.7795 44.5023 17.4741 45.2285 17.5057 45.9232H14.0325ZM20.5684 46.081V48.9543H19.779V43.8393H20.5052V44.597C20.6946 44.2182 21.263 43.713 22.1786 43.713C23.41 43.713 24.1994 44.597 24.1994 45.7337V48.9227H23.41V45.8916C23.41 45.0075 22.8733 44.4708 22.0523 44.4708C21.1998 44.4708 20.5684 45.1022 20.5684 46.081ZM28.2092 49.0805C29.2196 49.0805 30.0721 48.5754 30.5457 47.786L29.8511 47.344C29.5353 47.9123 28.9039 48.2912 28.2092 48.2912C27.1673 48.2912 26.3464 47.5019 26.3464 46.3968C26.3464 45.2917 27.1673 44.5023 28.2092 44.5023C28.9039 44.5023 29.5353 44.8812 29.8511 45.4495L30.5457 45.0075C30.0721 44.1866 29.2196 43.713 28.2092 43.713C26.7253 43.713 25.4939 44.8496 25.4939 46.3968C25.4939 47.9439 26.7253 49.0805 28.2092 49.0805ZM36.3869 43.8393L32.377 51.5749H31.4298L33.1032 48.3859L30.8299 43.8393H31.7455L33.5768 47.565L35.4397 43.8393H36.3869Z" fill="white"/>
</g>
<defs>
<clipPath id="clip0_1_252">
<rect width="77.9876" height="51.7812" fill="white" transform="translate(0.80307 0.109375)"/>
</clipPath>
</defs>
</svg>
